name analog
datacolumns 19
datarows 23
range 0.419 0.43
endheader
time	ground_force_vx	ground_force_vy	ground_force_vz	ground_force_px	ground_force_py	ground_force_pz	l_ground_force_vx	l_ground_force_vy	l_ground_force_vz	l_ground_force_px	l_ground_force_py	l_ground_force_pz	ground_torque_x	ground_torque_y	ground_torque_z	l_ground_torque_x	l_ground_torque_y	l_ground_torque_z
0.419	-0.0	-0.0	-0.0	2.86344838142395	32.693450927734375	-391.8661193847656	-0.6791995167732239	-31.638486862182617	-389.5768127441406	-0.0	-0.0	-0.0	-0.0	-0.0	-0.0	109120.8046875	-11507.6123046875	-13944.1279296875
0.4195	-0.0	-0.0	-0.0	3.0831258296966557	32.356170654296875	-391.90960693359375	-0.4629981517791748	-31.776447296142575	-390.7771911621094	-0.0	-0.0	-0.0	-0.0	-0.0	-0.0	108902.328125	-11515.3681640625	-13848.50390625
0.42	-0.0	-0.0	-0.0	3.637974262237549	32.16701126098633	-391.2036743164063	-0.7983970642089844	-31.619163513183597	-390.70068359375	-0.0	-0.0	-0.0	-0.0	-0.0	-0.0	108908.046875	-11650.30078125	-13776.3232421875
0.4205	-0.0	-0.0	-0.0	3.8267974853515625	32.10780334472656	-390.0618896484375	-0.2058058083057403	-31.315338134765625	-390.2746887207031	-0.0	-0.0	-0.0	-0.0	-0.0	-0.0	109199.9140625	-11688.634765625	-13706.3603515625
0.421	-0.0	-0.0	-0.0	3.944991827011109	32.25577926635742	-392.02972412109375	-0.7006367444992065	-31.18656539916992	-389.7715148925781	-0.0	-0.0	-0.0	-0.0	-0.0	-0.0	109250.4765625	-11852.2255859375	-13677.0048828125
0.4215	-0.0	-0.0	-0.0	3.8264389038085938	31.512130737304688	-391.79498291015625	-0.581801176071167	-31.275060653686523	-389.6124572753906	-0.0	-0.0	-0.0	-0.0	-0.0	-0.0	108954.2578125	-11606.1875	-13693.4951171875
0.422	-0.0	-0.0	-0.0	3.736835479736328	31.978031158447266	-390.8918151855469	-0.394089937210083	-31.17674827575684	-390.5832214355469	-0.0	-0.0	-0.0	-0.0	-0.0	-0.0	109015.53125	-11582.7646484375	-13597.7470703125
0.4225	-0.0	-0.0	-0.0	3.8657495975494394	31.928386688232425	-389.8321228027344	-0.4042346477508545	-31.47212219238281	-391.1668395996094	-0.0	-0.0	-0.0	-0.0	-0.0	-0.0	108848.859375	-11893.5830078125	-13752.673828125
0.423	-0.0	-0.0	-0.0	4.371315002441406	31.91883087158203	-391.0086669921875	-0.6802268028259277	-31.56033706665039	-390.2739868164063	-0.0	-0.0	-0.0	-0.0	-0.0	-0.0	109014.4765625	-11928.474609375	-13677.037109375
0.4235	-0.0	-0.0	-0.0	4.183321952819824	31.879228591918945	-388.7344055175781	-0.3351118564605713	-31.63880729675293	-390.9721374511719	-0.0	-0.0	-0.0	-0.0	-0.0	-0.0	109004.703125	-11967.291015625	-13686.6689453125
0.424	-0.0	-0.0	-0.0	4.648372650146484	32.205421447753906	-388.8927612304688	-0.197189062833786	-31.825571060180664	-392.484375	-0.0	-0.0	-0.0	-0.0	-0.0	-0.0	109558.6484375	-11939.9013671875	-13584.521484375
0.4245	-0.0	-0.0	-0.0	4.41127872467041	32.01777648925781	-389.5998229980469	-0.5718709230422974	-31.75637435913086	-391.74810791015625	-0.0	-0.0	-0.0	-0.0	-0.0	-0.0	109701.515625	-11806.009765625	-13647.3095703125
0.425	-0.0	-0.0	-0.0	4.935734272003174	31.868682861328125	-388.692626953125	-0.4435539245605469	-31.70748519897461	-391.9411315917969	-0.0	-0.0	-0.0	-0.0	-0.0	-0.0	109625.234375	-12089.8447265625	-13621.03515625
0.4255	-0.0	-0.0	-0.0	5.055952072143555	32.24517059326172	-389.3548889160156	-0.1972969472408294	-31.86433982849121	-393.25921630859375	-0.0	-0.0	-0.0	-0.0	-0.0	-0.0	109796.4296875	-12191.400390625	-13630.6748046875
0.426	-0.0	-0.0	-0.0	4.846304893493652	32.02912139892578	-390.8111267089844	-0.3349315226078033	-31.727310180664062	-393.4085083007813	-0.0	-0.0	-0.0	-0.0	-0.0	-0.0	109898.1328125	-11967.3583984375	-13627.123046875
0.4265	-0.0	-0.0	-0.0	5.154083251953125	32.23368835449219	-388.144775390625	-0.6209754943847656	-31.93273162841797	-393.1447143554688	-0.0	-0.0	-0.0	-0.0	-0.0	-0.0	109734.1796875	-12434.2783203125	-13637.6884765625
0.427	-0.0	-0.0	-0.0	5.628820419311523	32.204769134521484	-389.4437561035156	-0.2173880338668823	-31.65021705627441	-392.5250549316406	-0.0	-0.0	-0.0	-0.0	-0.0	-0.0	109681.8515625	-12194.0068359375	-13607.6875
0.4275	-0.0	-0.0	-0.0	5.441841125488281	32.39133071899414	-389.1710205078125	-0.3662296831607818	-32.089298248291016	-392.8743896484375	-0.0	-0.0	-0.0	-0.0	-0.0	-0.0	109793.8046875	-12311.14453125	-13620.3974609375
0.428	-0.0	-0.0	-0.0	5.689237594604492	31.673463821411133	-388.9312438964844	-0.689631462097168	-31.90409469604492	-392.4009094238281	-0.0	-0.0	-0.0	-0.0	-0.0	-0.0	109725.8125	-12289.6943359375	-13548.8076171875
0.4285	-0.0	-0.0	-0.0	5.839226245880127	31.78716468811035	-389.2042846679688	-0.4318093061447143	-31.787498474121094	-391.3989868164063	-0.0	-0.0	-0.0	-0.0	-0.0	-0.0	109535.6953125	-12283.3232421875	-13633.685546875
0.429	-0.0	-0.0	-0.0	6.183812141418457	31.434770584106445	-386.9732360839844	-0.0	-32.2574577331543	-392.7486267089844	-0.0	-0.0	-0.0	-0.0	-0.0	-0.0	109560.03125	-12407.2705078125	-13538.984375
0.4295	-0.0	-0.0	-0.0	6.025628089904785	31.85553932189941	-386.9736633300781	-0.0483859777450561	-32.07282257080078	-392.1607360839844	-0.0	-0.0	-0.0	-0.0	-0.0	-0.0	109396.2890625	-12428.603515625	-13417.677734375
0.43	-0.0	-0.0	-0.0	5.880201816558838	31.888322830200195	-387.4886169433594	0.2134526371955871	-31.75993537902832	-390.9391784667969	-0.0	-0.0	-0.0	-0.0	-0.0	-0.0	109327.1328125	-12319.318359375	-13393.15234375
